<?xml version="1.0" encoding="iso-8859-1"?>
<!-- Generator: Adobe Illustrator 16.0.0, SVG Export Plug-In . SVG Version: 6.00 Build 0)  -->
<!DOCTYPE svg PUBLIC "-//W3C//DTD SVG 1.1//EN" "http://www.w3.org/Graphics/SVG/1.1/DTD/svg11.dtd">
<svg version="1.1" id="Capa_1" xmlns="http://www.w3.org/2000/svg" xmlns:xlink="http://www.w3.org/1999/xlink" x="0px" y="0px"
	 width="512px" height="512px" viewBox="0 0 512 512" style="enable-background:new 0 0 512 512;" xml:space="preserve">
<g>
	<path d="M144.75,0l-32,352H15.375v80c0,44.125,35.875,80,80,80h288c44.125,0,80-35.875,79.938-78.781L496.625,0H144.75z
		 M95.375,480c-26.5,0-48-21.531-48-48v-48h256v48c0,18,5.938,34.625,16,48H95.375z M431.375,432c0,26.469-21.562,48-48,48
		c-26.5,0-48-21.531-48-48v-80h-190.5L174,32h288.062L431.375,432z M385.625,192H223.688l2.938-32h161.438L385.625,192z M390.5,128
		h-161l2.938-32H393L390.5,128z M252.688,256h-34.813l2.875-32h34.375L252.688,256z M284.75,224h66.375l-2.438,32h-66.813
		L284.75,224z"/>
</g>
<g>
</g>
<g>
</g>
<g>
</g>
<g>
</g>
<g>
</g>
<g>
</g>
<g>
</g>
<g>
</g>
<g>
</g>
<g>
</g>
<g>
</g>
<g>
</g>
<g>
</g>
<g>
</g>
<g>
</g>
</svg>
